<svg width="100" height="101" viewBox="0 0 100 101" fill="none" xmlns="http://www.w3.org/2000/svg">
<path fill-rule="evenodd" clip-rule="evenodd" d="M88.3784 4.37784L79.2568 13.4994L80.9284 15.171L87.3441 8.75533C87.7612 8.33818 88.4376 8.33818 88.8547 8.75533C89.2719 9.17248 89.2719 9.84882 88.8547 10.266L82.439 16.6817L83.9284 18.171L90.3441 11.7553C90.7612 11.3382 91.4376 11.3382 91.8547 11.7553C92.2719 12.1725 92.2719 12.8488 91.8547 13.266L85.439 19.6817L86.9835 21.2262L96.1051 12.1046L88.3784 4.37784ZM89.7926 1.54941C89.0116 0.768362 87.7452 0.768361 86.9642 1.54941L83.9688 4.54481L82.636 3.212C81.9666 2.54263 80.8814 2.54263 80.212 3.21199C79.5426 3.88136 79.5426 4.96661 80.212 5.63598L81.5448 6.96879L79.9688 8.54481L78.636 7.212C77.9666 6.54263 76.8814 6.54263 76.212 7.21199C75.5426 7.88136 75.5426 8.96661 76.212 9.63598L77.5448 10.9688L76.4284 12.0852C75.8023 12.7112 75.6781 13.649 76.0556 14.3988L75.074 15.3804L59.8442 30.6102C59.0549 29.9968 58.2289 29.3844 57.365 28.7746C52.0838 25.0467 47.3084 24.1391 43.1838 25.0464C39.11 25.9426 35.9286 28.5532 33.669 31.3697C32.9308 32.2898 32.2497 33.3006 31.6013 34.2896C31.4573 34.5091 31.3154 34.7269 31.1746 34.9431L31.1745 34.9431L31.1745 34.9432C30.6689 35.7191 30.1776 36.4731 29.6605 37.2035C28.3319 39.0803 26.9994 40.5505 25.3697 41.3346C23.51 42.2293 21.5933 42.5208 19.4333 42.801L19.0649 42.8485C17.0522 43.1073 14.8158 43.3948 12.5793 44.3084C11.7747 44.6371 11.0091 45.0187 10.2817 45.4437C4.47255 48.8375 1.43808 54.7696 0.697995 61.1036C-0.0405683 67.4247 1.47935 74.2773 4.91692 79.7826C12.1302 91.3348 24.085 97.7694 31.0554 99.9326L31.147 99.961L31.2414 99.9775C34.7652 100.594 40.1881 100.632 45.0582 98.6798C50.0228 96.6894 54.3956 92.6196 55.484 85.2182C55.6264 84.2504 55.7779 83.337 55.937 82.4753C56.8228 77.6769 60.3096 74.4542 64.4509 70.9137C64.6568 70.7377 64.8644 70.5609 65.0733 70.3829L65.0741 70.3823L65.0742 70.3822L65.0742 70.3822C68.9198 67.1064 73.1939 63.4657 74.9115 58.0448C75.4662 56.294 75.6114 54.6619 75.4968 53.3962C75.369 50.7446 73.8625 45.9776 69.747 40.4956L84.9681 25.2745L85.9126 24.33C86.6859 24.8212 87.7229 24.7294 88.3977 24.0546L90.5142 21.9381L91.6075 23.0314C92.2768 23.7008 93.3621 23.7008 94.0314 23.0315C94.7008 22.3621 94.7008 21.2768 94.0314 20.6075L92.9381 19.5142L94.5142 17.9381L95.6075 19.0314C96.2768 19.7008 97.3621 19.7008 98.0314 19.0315C98.7008 18.3621 98.7008 17.2768 98.0314 16.6075L96.9381 15.5142L98.9335 13.5188C99.7146 12.7377 99.7146 11.4714 98.9335 10.6903L89.7926 1.54941ZM77.1953 17.5017L47.1872 47.5099L48.7086 49.0314C49.5719 49.6653 50.3347 50.4281 50.9686 51.2914L52.8386 53.1613L82.8467 23.1532L77.1953 17.5017ZM45.0658 45.3886L43.4151 47.0393C43.1135 47.0133 42.8083 47 42.5 47C36.701 47 32 51.701 32 57.5C32 63.299 36.701 68 42.5 68C48.299 68 53 63.299 53 57.5C53 57.415 52.999 57.3302 52.997 57.2456L54.9599 55.2827L67.6033 42.6393C71.2327 47.5887 72.4193 51.6759 72.5014 53.5652L72.5031 53.6038L72.5068 53.6422C72.5866 54.4805 72.5001 55.7232 72.0516 57.1386C70.6009 61.7171 66.9453 64.8387 62.9212 68.2749L62.5015 68.6334C58.4587 72.0897 54.0916 75.9461 52.9868 81.9306C52.8208 82.83 52.6633 83.7796 52.516 84.7818C51.6044 90.9804 48.0606 94.2439 43.9418 95.8952C39.7703 97.5676 34.997 97.5725 31.8525 97.0386C25.3496 94.9962 14.1618 88.9243 7.4616 78.1937C4.3843 73.2653 3.01827 67.0957 3.67772 61.4518C4.33566 55.8208 6.98315 50.8452 11.795 48.034C12.406 47.6771 13.0453 47.3587 13.7138 47.0856C15.5768 46.3246 17.4552 46.0818 19.5442 45.8117L19.8193 45.7761C21.9656 45.4976 24.3264 45.1657 26.6704 44.038C29.0142 42.9104 30.7114 40.9113 32.1091 38.9369C32.6626 38.155 33.195 37.3378 33.7047 36.5555L33.7047 36.5554L33.7053 36.5546L33.7054 36.5544L33.7056 36.5541L33.7058 36.5539L33.7059 36.5536L33.7062 36.5533C33.8424 36.3441 33.9771 36.1374 34.1101 35.9346C34.753 34.954 35.3674 34.0467 36.0089 33.2471C38.0049 30.7592 40.6417 28.6774 43.8283 27.9764C46.9641 27.2866 50.8913 27.877 55.635 31.2255C56.3537 31.7328 57.0436 32.241 57.7056 32.7488L45.0658 45.3886ZM42.5 50C44.0838 50 45.5529 50.4909 46.7635 51.3289L48.6711 53.2365C49.5091 54.4471 50 55.9162 50 57.5C50 61.6421 46.6421 65 42.5 65C38.3579 65 35 61.6421 35 57.5C35 53.3579 38.3579 50 42.5 50ZM17.7071 66.8172C17.3166 67.2077 17.3166 67.8409 17.7071 68.2314L31.7015 82.2258C32.092 82.6163 32.7252 82.6163 33.1157 82.2258L37.2258 78.1157C37.6163 77.7252 37.6163 77.092 37.2258 76.7015L23.2314 62.7071C22.8409 62.3166 22.2077 62.3166 21.8172 62.7071L17.7071 66.8172Z" fill="black"/>
</svg>
