<svg width="48" height="48" viewBox="0 0 48 48" fill="none" xmlns="http://www.w3.org/2000/svg">
<g clip-path="url(#clip0_1_2)">
<path d="M39.867 25.956C38.329 25.964 36.997 26.333 35.881 26.884C35.473 26.069 35.059 25.352 34.99 24.819C34.909 24.197 34.815 23.825 34.913 23.084C35.011 22.343 35.44 21.293 35.434 21.214C35.428 21.135 35.338 20.758 34.451 20.751C33.564 20.745 32.805 20.922 32.716 21.156C32.627 21.39 32.456 21.917 32.35 22.467C32.195 23.271 30.579 26.14 29.662 27.64C29.362 27.054 29.107 26.538 29.054 26.13C28.973 25.508 28.879 25.136 28.977 24.395C29.075 23.654 29.504 22.604 29.498 22.525C29.492 22.446 29.402 22.069 28.515 22.062C27.628 22.056 26.869 22.233 26.78 22.467C26.691 22.701 26.595 23.248 26.414 23.778C26.232 24.307 24.085 29.092 23.522 30.333C23.235 30.965 22.986 31.473 22.81 31.819C22.809 31.818 22.809 31.817 22.809 31.817C22.809 31.817 22.798 31.84 22.78 31.879C22.629 32.174 22.54 32.337 22.54 32.337C22.54 32.337 22.541 32.339 22.543 32.343C22.423 32.56 22.295 32.761 22.232 32.761C22.188 32.761 22.099 32.184 22.251 31.392C22.571 29.732 23.338 27.144 23.331 27.054C23.327 27.008 23.474 26.557 22.83 26.321C22.204 26.092 21.981 26.474 21.924 26.475C21.869 26.476 21.828 26.61 21.828 26.61C21.828 26.61 22.525 23.699 20.498 23.699C19.23 23.699 17.474 25.086 16.609 26.343C16.063 26.641 14.894 27.279 13.655 27.96C13.179 28.222 12.693 28.489 12.232 28.743C12.201 28.708 12.169 28.674 12.137 28.639C9.678 26.016 5.134 24.161 5.326 20.634C5.396 19.352 5.842 15.976 14.059 11.882C20.79 8.528 26.179 9.451 27.11 11.496C28.44 14.419 24.23 19.85 17.24 20.634C14.577 20.933 13.174 19.9 12.825 19.516C12.458 19.111 12.403 19.093 12.266 19.169C12.043 19.293 12.184 19.65 12.266 19.863C12.475 20.406 13.331 21.369 14.791 21.849C16.076 22.271 19.203 22.502 22.984 21.039C27.22 19.401 30.527 14.843 29.555 11.034C28.567 7.16 22.143 5.886 16.063 8.046C12.44 9.332 8.523 11.35 5.706 13.984C2.357 17.116 1.823 19.843 2.043 20.982C2.825 25.03 8.404 27.666 10.638 29.619C10.528 29.68 10.424 29.737 10.33 29.789C9.21 30.343 4.957 32.569 3.893 34.92C2.686 37.587 4.085 39.501 5.011 39.759C7.88 40.557 10.824 39.121 12.407 36.761C13.989 34.402 13.796 31.329 13.07 29.927C13.061 29.91 13.051 29.893 13.042 29.875C13.331 29.704 13.626 29.53 13.918 29.358C14.488 29.023 15.048 28.711 15.533 28.447C15.261 29.191 15.062 30.084 14.959 31.373C14.837 32.887 15.458 34.844 16.27 35.614C16.628 35.953 17.058 35.961 17.33 35.961C18.275 35.961 18.706 35.175 19.181 34.245C19.763 33.105 20.28 31.777 20.28 31.777C20.28 31.777 19.632 35.363 21.398 35.363C22.042 35.363 22.689 34.528 22.978 34.103C22.979 34.108 22.979 34.11 22.979 34.11C22.979 34.11 22.996 34.082 23.029 34.027C23.096 33.925 23.134 33.86 23.134 33.86C23.134 33.86 23.135 33.853 23.137 33.841C23.396 33.392 23.97 32.368 24.83 30.679C25.942 28.497 27.008 25.763 27.008 25.763C27.008 25.763 27.107 26.431 27.432 27.537C27.623 28.187 28.029 28.906 28.35 29.596C28.092 29.954 27.934 30.159 27.934 30.159C27.934 30.159 27.935 30.163 27.938 30.17C27.732 30.444 27.501 30.739 27.259 31.027C26.381 32.072 25.336 33.266 25.196 33.61C25.031 34.016 25.07 34.314 25.389 34.555C25.622 34.73 26.036 34.758 26.469 34.729C27.258 34.676 27.812 34.48 28.086 34.361C28.513 34.21 29.01 33.973 29.476 33.63C30.337 32.997 30.856 32.092 30.806 30.892C30.778 30.231 30.568 29.576 30.301 28.958C30.379 28.846 30.457 28.732 30.536 28.618C31.893 26.634 32.946 24.454 32.946 24.454C32.946 24.454 33.045 25.122 33.37 26.228C33.534 26.787 33.859 27.398 34.151 27.996C32.875 29.033 32.084 30.238 31.809 31.028C31.301 32.49 31.699 33.152 32.445 33.303C32.783 33.371 33.261 33.216 33.62 33.064C34.067 32.916 34.604 32.669 35.106 32.3C35.967 31.667 36.795 30.781 36.745 29.582C36.722 29.036 36.574 28.494 36.373 27.974C37.455 27.523 38.855 27.273 40.639 27.481C44.466 27.928 45.216 30.317 45.073 31.317C44.929 32.317 44.127 32.867 43.858 33.033C43.59 33.199 43.508 33.257 43.53 33.38C43.563 33.559 43.687 33.553 43.916 33.514C44.231 33.461 45.925 32.701 45.998 30.855C46.089 28.509 43.844 25.935 39.867 25.956ZM10.37 35.9C9.102 37.283 7.332 37.805 6.572 37.365C5.752 36.89 6.077 34.854 7.632 33.386C8.58 32.492 9.804 31.668 10.616 31.161C10.801 31.05 11.072 30.887 11.402 30.689C11.457 30.658 11.488 30.641 11.488 30.641L11.487 30.639C11.551 30.601 11.616 30.562 11.683 30.521C12.25 32.61 11.701 34.449 10.37 35.9ZM19.605 29.623C19.164 30.699 18.24 33.453 17.677 33.305C17.194 33.178 16.9 31.085 17.581 29.025C17.923 27.988 18.655 26.749 19.085 26.268C19.777 25.494 20.539 25.241 20.724 25.555C20.959 25.955 19.882 28.948 19.605 29.623ZM27.234 33.263C27.047 33.361 26.875 33.422 26.796 33.375C26.737 33.34 26.873 33.211 26.873 33.211C26.873 33.211 27.827 32.184 28.203 31.717C28.422 31.445 28.675 31.122 28.951 30.762C28.953 30.798 28.954 30.834 28.954 30.869C28.952 32.099 27.764 32.929 27.234 33.263ZM33.111 31.923C32.971 31.824 32.995 31.503 33.454 30.502C33.634 30.109 34.046 29.448 34.76 28.816C34.843 29.076 34.893 29.325 34.892 29.557C34.883 31.105 33.779 31.683 33.111 31.923Z" fill="#F06292"/>
</g>
<defs>
<clipPath id="clip0_1_2">
<rect width="48" height="48" fill="white"/>
</clipPath>
</defs>
</svg>
